<svg width="22" height="21" viewBox="0 0 22 21" fill="none" xmlns="http://www.w3.org/2000/svg">
<path d="M21.2069 20.2644C21.2069 20.6706 20.8775 21 20.4713 21H14.0115C13.6052 21 13.2759 20.6706 13.2759 20.2644V14.0345C13.2759 10.1264 13.7241 7.21839 14.6207 5.31034C15.6463 3.15442 17.3104 1.494 19.613 0.329104C19.9876 0.139565 20.4364 0.327809 20.5871 0.719684L21.6008 3.35526C21.7456 3.73156 21.5586 4.1512 21.1956 4.32683C19.9712 4.91942 19.0554 5.69553 18.4483 6.65517C17.8476 7.6363 17.4998 8.94007 17.4048 10.5665C17.381 10.9754 17.7139 11.3103 18.1235 11.3103H20.4713C20.8775 11.3103 21.2069 11.6397 21.2069 12.046V20.2644ZM7.96552 20.2644C7.96552 20.6706 7.63616 21 7.22989 21H0.735632C0.329354 21 0 20.6706 0 20.2644V14.0345C0 10.1034 0.505747 7.06897 1.51724 4.93103C2.4583 2.98617 4.0652 1.45033 6.33794 0.323498C6.71304 0.137521 7.15986 0.325976 7.31015 0.716743L8.3263 3.35872C8.4705 3.73366 8.28537 4.15186 7.92481 4.329C6.71925 4.92131 5.81328 5.6967 5.2069 6.65517C4.60724 7.63461 4.2509 8.93558 4.13789 10.5581C4.10919 10.9701 4.44341 11.3103 4.85639 11.3103H7.22988C7.63616 11.3103 7.96552 11.6397 7.96552 12.046V20.2644Z" fill="#A1CA6B"/>
</svg>
