<svg width="63" height="41" viewBox="0 0 63 41" fill="none" xmlns="http://www.w3.org/2000/svg">
<g id="Batton a">
<path id="XMLID_4_" d="M56.6901 0.649414H5.10477C4.73365 0.649414 4.32542 0.686808 3.95431 0.761595C3.58319 0.836381 3.21207 0.948562 2.84095 1.13553C2.50695 1.2851 2.17294 1.54686 1.91316 1.80861C1.65338 2.07037 1.3936 2.40691 1.24515 2.74345C1.05959 3.07999 0.948254 3.45393 0.874031 3.86525C0.799807 4.23919 0.799807 4.65052 0.762695 5.02445V35.8741C0.762695 36.248 0.799807 36.6593 0.874031 37.0333C0.948254 37.4072 1.05959 37.7811 1.24515 38.1551C1.43071 38.4916 1.65338 38.8282 1.91316 39.0899C2.17294 39.3517 2.50695 39.6134 2.84095 39.763C3.17496 39.95 3.54608 40.0621 3.95431 40.1369C4.32542 40.2117 4.73365 40.2117 5.10477 40.2491H57.8406C58.2117 40.2491 58.6199 40.2117 58.991 40.1369C59.3621 40.0621 59.7333 39.95 60.1044 39.763C60.4384 39.576 60.7724 39.3517 61.0322 39.0899C61.292 38.8282 61.5517 38.4916 61.7002 38.1551C61.8857 37.8185 61.9971 37.4446 62.0713 37.0333C62.1455 36.6593 62.1455 36.248 62.1826 35.8741V35.3506V6.18365V5.54796V5.02445C62.1826 4.65052 62.1455 4.23919 62.0713 3.86525C61.9971 3.49132 61.8857 3.11738 61.7002 2.74345C61.5146 2.40691 61.292 2.07037 61.0322 1.80861C60.7724 1.54686 60.4384 1.2851 60.1044 1.13553C59.7704 0.948562 59.3993 0.836381 58.991 0.761595C58.6199 0.686808 58.2117 0.686808 57.8406 0.649414H56.6901V0.649414Z" fill="black"/>
<path id="XMLID_3_" d="M60.6089 4.07643L60.6101 4.08582L60.6121 4.09507C60.6809 4.40686 60.6816 4.72187 60.6816 5.02379V35.8734C60.6816 36.1584 60.6463 36.4821 60.609 36.8203C60.5741 37.0638 60.5054 37.3029 60.4058 37.5037C60.307 37.7027 60.1738 37.8724 59.998 38.0495C59.8222 38.2266 59.654 38.3607 59.4567 38.4601C59.2535 38.5625 59.0529 38.6301 58.7801 38.6644L58.7706 38.6656L58.7612 38.6677C58.4523 38.7369 58.1402 38.7376 57.8405 38.7376H5.10469C4.85885 38.7376 4.50046 38.7019 4.16542 38.6645C3.92391 38.6294 3.69791 38.5615 3.5102 38.4354L3.49972 38.4284L3.48845 38.4227C3.29121 38.3233 3.12296 38.1892 2.94716 38.0121C2.7714 37.835 2.63817 37.6654 2.5394 37.4663C2.43765 37.2613 2.37041 37.0588 2.33625 36.7834L2.33508 36.774L2.33304 36.7647C2.26428 36.4529 2.26356 36.1379 2.26356 35.836V5.54729V5.02379C2.26356 4.7388 2.29892 4.41513 2.33622 4.07687C2.37103 3.83337 2.43978 3.59425 2.5394 3.39349C2.63817 3.19445 2.77139 3.02481 2.94716 2.84771C3.12296 2.67058 3.29121 2.53647 3.48845 2.4371C3.69169 2.33471 3.89224 2.26712 4.16503 2.23276L4.17456 2.23156L4.18393 2.22946C4.49284 2.1603 4.80499 2.15956 5.10469 2.15956H56.69H57.8405C58.1235 2.15956 58.4451 2.19527 58.7815 2.23293C59.0536 2.26734 59.2538 2.33488 59.4567 2.4371C59.654 2.53647 59.8222 2.67058 59.998 2.84771C60.1738 3.02481 60.307 3.19445 60.4058 3.39349C60.5075 3.59854 60.5748 3.80104 60.6089 4.07643Z" fill="white" stroke="black" stroke-width="0.404079"/>
<path id="Vector" d="M17.5376 13.9611C18.0572 13.2881 18.4283 12.3906 18.317 11.4932C17.5376 11.5306 16.6098 12.0167 16.0532 12.6524C15.5707 13.2133 15.1254 14.1481 15.2367 15.0082C16.1274 15.1203 16.981 14.6342 17.5376 13.9611ZM18.317 15.2325C17.0552 15.1577 15.9789 15.943 15.3851 15.943C14.7914 15.943 13.8636 15.2699 12.8615 15.2699C11.5626 15.3073 10.3751 16.0178 9.70705 17.2144C8.37103 19.5702 9.33593 23.0477 10.672 24.9548C11.3029 25.8897 12.0822 26.9367 13.0842 26.8993C14.0491 26.8619 14.4202 26.2636 15.5707 26.2636C16.7212 26.2636 17.0552 26.8993 18.0943 26.8619C19.1334 26.8245 19.8014 25.927 20.4323 24.9548C21.1746 23.8704 21.4715 22.8234 21.4715 22.786C21.4344 22.7486 19.4303 22.0007 19.4303 19.6823C19.3932 17.7379 20.989 16.803 21.0632 16.7656C20.2097 15.4195 18.7994 15.2699 18.317 15.2325" fill="black"/>
<g id="Group">
<path id="Vector_2" d="M29.2279 12.5776C31.9741 12.5776 33.8668 14.4847 33.8668 17.2144C33.8668 19.9815 31.937 21.8886 29.1537 21.8886H26.1476V26.7124H23.958V12.5776H29.2279ZM26.1476 20.0563H28.6341C30.5268 20.0563 31.603 19.0093 31.603 17.2518C31.603 15.4569 30.5268 14.4473 28.6341 14.4473H26.1105V20.0563H26.1476ZM34.4235 23.8331C34.4235 22.0382 35.7967 20.9164 38.246 20.7668L41.0665 20.6172V19.832C41.0665 18.6728 40.2872 17.9997 39.0254 17.9997C37.8007 17.9997 37.0585 18.598 36.8729 19.4954H34.8689C34.9802 17.6258 36.576 16.2422 39.0996 16.2422C41.5861 16.2422 43.1819 17.551 43.1819 19.645V26.7498H41.1779V25.0671H41.1407C40.547 26.2263 39.248 26.9367 37.912 26.9367C35.8338 26.9367 34.4235 25.6654 34.4235 23.8331V23.8331ZM41.0665 22.8982V22.0756L38.5429 22.2252C37.2811 22.2999 36.576 22.8608 36.576 23.7583C36.576 24.6557 37.3182 25.254 38.4316 25.254C39.9161 25.254 41.0665 24.2444 41.0665 22.8982ZM45.0375 30.5639V28.8438C45.1859 28.8812 45.557 28.8812 45.7055 28.8812C46.6704 28.8812 47.19 28.4699 47.524 27.4228C47.524 27.3855 47.7095 26.7872 47.7095 26.7872L43.9983 16.4666H46.2622L48.86 24.8801H48.8971L51.4949 16.4666H53.7216L49.8991 27.3481C49.0084 29.8534 48.0064 30.6387 45.891 30.6387C45.7426 30.6013 45.223 30.6013 45.0375 30.5639V30.5639Z" fill="black"/>
</g>
</g>
</svg>
