<svg width="62" height="41" viewBox="0 0 62 41" fill="none" xmlns="http://www.w3.org/2000/svg">
<path d="M56.4362 0.649414H4.85086C4.47975 0.649414 4.07152 0.686808 3.7004 0.761595C3.32928 0.836381 2.95816 0.948562 2.58705 1.13553C2.25304 1.2851 1.91904 1.54686 1.65925 1.80861C1.39947 2.07037 1.13969 2.40691 0.991242 2.74345C0.805683 3.07999 0.694348 3.45393 0.620124 3.86525C0.545901 4.23919 0.545901 4.65052 0.508789 5.02445V35.8741C0.508789 36.248 0.545901 36.6593 0.620124 37.0333C0.694348 37.4072 0.805683 37.7811 0.991242 38.1551C1.1768 38.4916 1.39947 38.8282 1.65925 39.0899C1.91904 39.3517 2.25304 39.6134 2.58705 39.763C2.92105 39.95 3.29217 40.0621 3.7004 40.1369C4.07152 40.2117 4.47975 40.2117 4.85086 40.2491H57.5867C57.9578 40.2491 58.366 40.2117 58.7371 40.1369C59.1082 40.0621 59.4794 39.95 59.8505 39.763C60.1845 39.576 60.5185 39.3517 60.7783 39.0899C61.038 38.8282 61.2978 38.4916 61.4463 38.1551C61.6318 37.8185 61.7432 37.4446 61.8174 37.0333C61.8916 36.6593 61.8916 36.248 61.9287 35.8741V35.3506V6.18365V5.54796V5.02445C61.9287 4.65052 61.8916 4.23919 61.8174 3.86525C61.7432 3.49132 61.6318 3.11738 61.4463 2.74345C61.2607 2.40691 61.038 2.07037 60.7783 1.80861C60.5185 1.54686 60.1845 1.2851 59.8505 1.13553C59.5165 0.948562 59.1453 0.836381 58.7371 0.761595C58.366 0.686808 57.9578 0.686808 57.5867 0.649414H56.4362V0.649414Z" fill="black"/>
<path d="M60.355 4.07692L60.3562 4.08631L60.3582 4.09556C60.427 4.40735 60.4277 4.72236 60.4277 5.02427V35.8739C60.4277 36.1589 60.3923 36.4825 60.3551 36.8208C60.3202 37.0643 60.2515 37.3034 60.1519 37.5042C60.0531 37.7032 59.9199 37.8729 59.7441 38.05C59.5683 38.2271 59.4001 38.3612 59.2028 38.4606C58.9996 38.563 58.799 38.6306 58.5262 38.6649L58.5167 38.6661L58.5073 38.6682C58.1984 38.7374 57.8863 38.7381 57.5866 38.7381H4.85078C4.60497 38.7381 4.24663 38.7024 3.91162 38.665C3.67008 38.6299 3.44403 38.562 3.2563 38.4359L3.24582 38.4289L3.23454 38.4232C3.0373 38.3238 2.86906 38.1897 2.69325 38.0126C2.51749 37.8355 2.38427 37.6658 2.28549 37.4668C2.18374 37.2617 2.11651 37.0592 2.08234 36.7839L2.08118 36.7745L2.07914 36.7652C2.01037 36.4534 2.00966 36.1384 2.00966 35.8365V5.54778V5.02427C2.00966 4.73929 2.04501 4.41562 2.08231 4.07736C2.11712 3.83386 2.18587 3.59474 2.28549 3.39398C2.38427 3.19494 2.51749 3.0253 2.69325 2.8482C2.86906 2.67106 3.0373 2.53696 3.23454 2.43759C3.43778 2.3352 3.63834 2.26761 3.91112 2.23325L3.92065 2.23205L3.93002 2.22995C4.23893 2.16078 4.55109 2.16005 4.85078 2.16005H56.4361H57.5866C57.8696 2.16005 58.1912 2.19576 58.5276 2.23342C58.7997 2.26783 58.9999 2.33537 59.2028 2.43759C59.4001 2.53696 59.5683 2.67106 59.7441 2.8482C59.9199 3.0253 60.0531 3.19493 60.1519 3.39398C60.2536 3.59903 60.3209 3.80152 60.355 4.07692Z" fill="white" stroke="black" stroke-width="0.404079"/>
<g clip-path="url(#clip0_397_4811)">
<path d="M30.0429 19.9795V25.0992H28.4355V12.453H32.6963C33.7241 12.4309 34.7173 12.8253 35.4554 13.5477C36.2025 14.2278 36.6235 15.2008 36.6071 16.2163C36.629 17.2391 36.208 18.2195 35.4554 18.9014C34.71 19.6202 33.7897 19.9795 32.6963 19.9777L30.0429 19.9795ZM30.0429 14.0103V18.4259H32.7364C33.3341 18.4444 33.91 18.2066 34.3255 17.7717C35.1693 16.9424 35.1893 15.5768 34.3674 14.7235C34.3528 14.7088 34.3401 14.694 34.3255 14.6811C33.9155 14.237 33.3359 13.9937 32.7364 14.0103H30.0429ZM40.3102 16.1647C41.4984 16.1647 42.4351 16.4853 43.1221 17.1267C43.8092 17.768 44.1518 18.6489 44.1518 19.7657V25.0992H42.6155V23.8976H42.5463C41.8811 24.8872 40.9954 25.3811 39.8911 25.3811C38.9489 25.3811 38.1598 25.0992 37.5256 24.5334C36.9096 24.0081 36.5597 23.2304 36.5743 22.414C36.5743 21.5184 36.9096 20.807 37.5784 20.2781C38.2473 19.7492 39.1402 19.4838 40.2592 19.4838C41.2123 19.4838 41.9996 19.6607 42.6155 20.0127V19.6404C42.6192 19.0839 42.375 18.5568 41.9522 18.2029C41.5276 17.8159 40.9736 17.604 40.4013 17.6114C39.5047 17.6114 38.794 17.9947 38.271 18.7595L36.8568 17.8583C37.6331 16.7286 38.7849 16.1647 40.3102 16.1647ZM38.2309 22.4509C38.229 22.8711 38.4277 23.2655 38.763 23.5106C39.1184 23.7925 39.5594 23.9436 40.0113 23.9344C40.6893 23.9326 41.3399 23.6598 41.8191 23.1751C42.3513 22.6683 42.6173 22.0749 42.6173 21.3912C42.1162 20.9876 41.4182 20.7849 40.5216 20.7849C39.8692 20.7849 39.3243 20.9434 38.8887 21.2622C38.4495 21.5865 38.2309 21.9791 38.2309 22.4509ZM52.9721 16.4466L47.6089 28.914H45.9505L47.9405 24.5518L44.4124 16.4466H46.1582L48.7078 22.6628H48.7424L51.2226 16.4466H52.9721Z" fill="black"/>
<path d="M23.549 18.873C23.549 18.3773 23.5089 17.8834 23.425 17.395H16.6494V20.1926H20.5293C20.3689 21.0956 19.8513 21.8936 19.0951 22.4004V24.2175H21.4113C22.7672 22.9551 23.549 21.0845 23.549 18.873Z" fill="#4285F4"/>
<path d="M16.6499 25.9744C18.5889 25.9744 20.2218 25.3312 21.4118 24.2199L19.0955 22.4028C18.4504 22.8451 17.6212 23.0976 16.6499 23.0976C14.7765 23.0976 13.1855 21.8204 12.6169 20.0991H10.2314V21.9715C11.4506 24.4263 13.9345 25.9744 16.6499 25.9744Z" fill="#34A853"/>
<path d="M12.6167 20.0992C12.316 19.198 12.316 18.2194 12.6167 17.3182V15.4458H10.2312C9.21069 17.4988 9.21069 19.9186 10.2312 21.9716L12.6167 20.0992Z" fill="#FBBC04"/>
<path d="M16.6499 14.3191C17.6741 14.3026 18.6636 14.6933 19.4053 15.4083L21.4573 13.335C20.1561 12.1003 18.434 11.4221 16.6499 11.4423C13.9345 11.4423 11.4506 12.9922 10.2314 15.4452L12.6169 17.3176C13.1855 15.5963 14.7765 14.3191 16.6499 14.3191Z" fill="#EA4335"/>
</g>
<defs>
<clipPath id="clip0_397_4811">
<rect width="43.5058" height="17.4709" fill="white" transform="translate(9.46582 11.4429)"/>
</clipPath>
</defs>
</svg>
