<svg width="19" height="19" viewBox="0 0 19 19" fill="none" xmlns="http://www.w3.org/2000/svg">
<path d="M8.54413 1.76105C8.80846 1.12994 9.70263 1.12994 9.96696 1.76105L11.5336 5.50141C11.6448 5.76691 11.8946 5.9484 12.1814 5.97211L16.2228 6.30621C16.9047 6.36258 17.181 7.21298 16.6625 7.6594L13.5893 10.3052C13.3712 10.493 13.2758 10.7866 13.3419 11.0668L14.273 15.0136C14.4301 15.6796 13.7067 16.2051 13.1219 15.8499L9.65595 13.7448C9.40993 13.5953 9.10116 13.5953 8.85514 13.7448L5.3892 15.8499C4.8044 16.2051 4.081 15.6796 4.2381 15.0136L5.16922 11.0668C5.23532 10.7866 5.1399 10.493 4.92176 10.3052L1.84857 7.6594C1.33004 7.21299 1.60635 6.36258 2.28825 6.30621L6.32965 5.97211C6.61653 5.9484 6.86632 5.76691 6.97752 5.50141L8.54413 1.76105Z" fill="#FFB703"/>
</svg>
