<svg width="67" height="19" viewBox="0 0 67 19" fill="none" xmlns="http://www.w3.org/2000/svg">
<path d="M0.739803 13.2001C0.139501 13.541 -0.0707682 14.304 0.270155 14.9043C0.611078 15.5046 1.37409 15.7149 1.97439 15.374L0.739803 13.2001ZM66.0622 13.1509C66.6769 12.8368 66.9206 12.0838 66.6065 11.469L61.4874 1.45119C61.1732 0.836446 60.4202 0.592753 59.8055 0.906887C59.1907 1.22102 58.9471 1.97403 59.2612 2.58877L63.8115 11.4935L54.9068 16.0438C54.292 16.358 54.0483 17.111 54.3625 17.7257C54.6766 18.3405 55.4296 18.5842 56.0443 18.27L66.0622 13.1509ZM3.60273 14.4781C4.21211 14.1537 4.44311 13.3967 4.11868 12.7873C3.79425 12.178 3.03726 11.947 2.42788 12.2714L3.60273 14.4781ZM7.64732 9.77625C7.01181 10.0459 6.71522 10.7797 6.98488 11.4152C7.25454 12.0507 7.98832 12.3473 8.62383 12.0776L7.64732 9.77625ZM12.0786 10.7365C12.7297 10.5069 13.0714 9.79305 12.8418 9.14197C12.6123 8.49089 11.8984 8.14917 11.2473 8.37872L12.0786 10.7365ZM16.7978 6.71526C16.1278 6.88157 15.7195 7.55955 15.8858 8.22957C16.0521 8.8996 16.7301 9.30794 17.4001 9.14164L16.7978 6.71526ZM21.0229 8.36333C21.7021 8.23961 22.1524 7.58873 22.0287 6.90955C21.905 6.23037 21.2541 5.78008 20.5749 5.9038L21.0229 8.36333ZM26.3111 5.12802C25.6235 5.18987 25.1162 5.79741 25.1781 6.48499C25.2399 7.17257 25.8474 7.67982 26.535 7.61797L26.3111 5.12802ZM30.2414 7.39049C30.9314 7.36736 31.472 6.78928 31.4488 6.09931C31.4257 5.40934 30.8476 4.86876 30.1576 4.8919L30.2414 7.39049ZM35.9276 4.92458C35.2379 4.89468 34.6545 5.42956 34.6246 6.11926C34.5947 6.80897 35.1296 7.39233 35.8193 7.42223L35.9276 4.92458ZM39.5382 7.67067C40.2258 7.73229 40.8331 7.22483 40.8948 6.53723C40.9564 5.84963 40.4489 5.24227 39.7613 5.18064L39.5382 7.67067ZM45.4753 5.87473C44.7928 5.77093 44.1553 6.24007 44.0515 6.92258C43.9477 7.60509 44.4169 8.24251 45.0994 8.34631L45.4753 5.87473ZM48.7811 8.9759C49.4594 9.10438 50.1134 8.65866 50.2419 7.98037C50.3704 7.30207 49.9247 6.64805 49.2464 6.51957L48.7811 8.9759ZM54.8571 7.72652C54.1858 7.56551 53.511 7.97919 53.35 8.65051C53.189 9.32183 53.6027 9.99656 54.274 10.1576L54.8571 7.72652ZM57.9065 11.0844C58.573 11.2644 59.2592 10.87 59.4392 10.2035C59.6192 9.53707 59.2248 8.85086 58.5583 8.67087L57.9065 11.0844ZM64.053 10.2693C63.3938 10.0643 62.6932 10.4325 62.4882 11.0917C62.2832 11.7509 62.6514 12.4515 63.3106 12.6565L64.053 10.2693ZM1.97439 15.374C2.51408 15.0675 3.05677 14.7688 3.60273 14.4781L2.42788 12.2714C1.86146 12.5729 1.29886 12.8826 0.739803 13.2001L1.97439 15.374ZM8.62383 12.0776C9.75815 11.5963 10.909 11.1488 12.0786 10.7365L11.2473 8.37872C10.0278 8.80869 8.82847 9.27507 7.64732 9.77625L8.62383 12.0776ZM17.4001 9.14164C18.5862 8.84723 19.7932 8.58735 21.0229 8.36333L20.5749 5.9038C19.2934 6.13725 18.035 6.40818 16.7978 6.71526L17.4001 9.14164ZM26.535 7.61797C27.7473 7.50892 28.9822 7.43271 30.2414 7.39049L30.1576 4.8919C28.8524 4.93566 27.5707 5.01471 26.3111 5.12802L26.535 7.61797ZM35.8193 7.42223C37.0362 7.47499 38.2755 7.5575 39.5382 7.67067L39.7613 5.18064C38.4614 5.06414 37.1839 4.97904 35.9276 4.92458L35.8193 7.42223ZM45.0994 8.34631C46.3057 8.52976 47.5326 8.7394 48.7811 8.9759L49.2464 6.51957C47.969 6.27762 46.7123 6.06286 45.4753 5.87473L45.0994 8.34631ZM54.274 10.1576C55.4658 10.4434 56.6764 10.7522 57.9065 11.0844L58.5583 8.67087C57.3061 8.33268 56.0726 8.01804 54.8571 7.72652L54.274 10.1576ZM63.3106 12.6565C63.9055 12.8415 64.5048 13.0317 65.1085 13.2271L65.8783 10.8486C65.2656 10.6503 64.6572 10.4572 64.053 10.2693L63.3106 12.6565Z" fill="#8C8C8C"/>
</svg>
