<svg width="42" height="15" viewBox="0 0 42 15" fill="none" xmlns="http://www.w3.org/2000/svg">
<path d="M40.9083 14.994C41.2852 15.0068 41.6011 14.7117 41.6139 14.3348L41.8227 8.19325C41.8355 7.81637 41.5404 7.50047 41.1635 7.48766C40.7866 7.47484 40.4707 7.76998 40.4579 8.14685L40.2723 13.606L34.8132 13.4204C34.4363 13.4076 34.1204 13.7027 34.1076 14.0796C34.0948 14.4565 34.3899 14.7724 34.7668 14.7852L40.9083 14.994ZM1.5722 2.33722C1.93922 2.25065 2.16657 1.88294 2.08 1.51592C1.99344 1.14889 1.62573 0.921542 1.2587 1.00811L1.5722 2.33722ZM4.21349 0.476915C3.8395 0.525247 3.57551 0.8676 3.62384 1.24158C3.67217 1.61557 4.01453 1.87956 4.38851 1.83123L4.21349 0.476915ZM6.2959 1.64008C6.672 1.61269 6.95468 1.2856 6.9273 0.9095C6.89991 0.533403 6.57282 0.250719 6.19672 0.278108L6.2959 1.64008ZM9.17508 0.169551C8.79799 0.170458 8.49303 0.476887 8.49394 0.853979C8.49485 1.23107 8.80127 1.53603 9.17837 1.53512L9.17508 0.169551ZM11.1055 1.57012C11.4823 1.58445 11.7994 1.2906 11.8138 0.913775C11.8281 0.536954 11.5342 0.219862 11.1574 0.205531L11.1055 1.57012ZM14.1212 0.400482C13.7457 0.365698 13.4131 0.641891 13.3783 1.01738C13.3435 1.39286 13.6197 1.72545 13.9952 1.76024L14.1212 0.400482ZM15.9154 1.97108C16.2895 2.01853 16.6312 1.75373 16.6786 1.37963C16.7261 1.00554 16.4613 0.663807 16.0872 0.616356L15.9154 1.97108ZM19.0205 1.06349C18.6492 0.99719 18.2946 1.24437 18.2283 1.61559C18.162 1.98681 18.4091 2.34149 18.7804 2.40779L19.0205 1.06349ZM20.6848 2.78669C21.0528 2.86892 21.4178 2.63724 21.5 2.26922C21.5822 1.90121 21.3506 1.53621 20.9825 1.45398L20.6848 2.78669ZM23.9205 2.23958C23.5607 2.12664 23.1775 2.32674 23.0645 2.68652C22.9516 3.0463 23.1517 3.42952 23.5115 3.54247L23.9205 2.23958ZM25.3527 4.18057C25.7052 4.31451 26.0996 4.13733 26.2335 3.78483C26.3674 3.43232 26.1903 3.03798 25.8378 2.90404L25.3527 4.18057ZM28.6321 4.10886C28.2926 3.94464 27.8843 4.0867 27.7201 4.42615C27.5558 4.76561 27.6979 5.17392 28.0374 5.33814L28.6321 4.10886ZM29.7698 6.23753C30.0995 6.42053 30.5152 6.3016 30.6982 5.97189C30.8812 5.64218 30.7622 5.22655 30.4325 5.04354L29.7698 6.23753ZM33.0278 6.62351C32.7136 6.41498 32.2898 6.50062 32.0813 6.8148C31.8728 7.12899 31.9584 7.55274 32.2726 7.76128L33.0278 6.62351ZM33.875 8.88319C34.1786 9.10691 34.606 9.04219 34.8298 8.73863C35.0535 8.43507 34.9888 8.00763 34.6852 7.7839L33.875 8.88319ZM37.0602 9.66425C36.7725 9.42043 36.3417 9.45597 36.0979 9.74364C35.8541 10.0313 35.8896 10.4622 36.1773 10.706L37.0602 9.66425ZM37.6464 12.0053C37.9237 12.2608 38.3557 12.2432 38.6112 11.9659C38.8668 11.6886 38.8492 11.2567 38.5719 11.0011L37.6464 12.0053ZM40.7356 13.1147C40.4734 12.8438 40.0411 12.8367 39.7701 13.099C39.4992 13.3612 39.4921 13.7935 39.7544 14.0645L40.7356 13.1147ZM0.65321 2.57367C0.95548 2.48913 1.26197 2.41039 1.5722 2.33722L1.2587 1.00811C0.93103 1.0854 0.60641 1.16878 0.285398 1.25856L0.65321 2.57367ZM4.38851 1.83123C5.01766 1.74992 5.65462 1.68678 6.2959 1.64008L6.19672 0.278108C5.53193 0.326521 4.8696 0.392123 4.21349 0.476915L4.38851 1.83123ZM9.17837 1.53512C9.82344 1.53357 10.467 1.54584 11.1055 1.57012L11.1574 0.205531C10.5016 0.180588 9.83959 0.167953 9.17508 0.169551L9.17837 1.53512ZM13.9952 1.76024C14.6491 1.82081 15.2906 1.89183 15.9154 1.97108L16.0872 0.616356C15.4477 0.535245 14.7909 0.462527 14.1212 0.400482L13.9952 1.76024ZM18.7804 2.40779C19.1048 2.46574 19.4211 2.52523 19.7285 2.58582L19.9926 1.24603C19.6772 1.18386 19.3529 1.12286 19.0205 1.06349L18.7804 2.40779ZM19.7285 2.58582C20.0395 2.64713 20.3584 2.71376 20.6848 2.78669L20.9825 1.45398C20.6442 1.37837 20.314 1.3094 19.9926 1.24603L19.7285 2.58582ZM23.5115 3.54247C24.1077 3.72964 24.7219 3.9409 25.3527 4.18057L25.8378 2.90404C25.1808 2.65443 24.5412 2.43444 23.9205 2.23958L23.5115 3.54247ZM28.0374 5.33814C28.6046 5.61258 29.1824 5.91151 29.7698 6.23753L30.4325 5.04354C29.8226 4.70498 29.2221 4.39431 28.6321 4.10886L28.0374 5.33814ZM32.2726 7.76128C32.8006 8.11174 33.335 8.48515 33.875 8.88319L34.6852 7.7839C34.1272 7.37263 33.5745 6.9864 33.0278 6.62351L32.2726 7.76128ZM36.1773 10.706C36.6633 11.1179 37.1532 11.5506 37.6464 12.0053L38.5719 11.0011C38.0648 10.5338 37.5608 10.0886 37.0602 9.66425L36.1773 10.706ZM39.7544 14.0645C39.9799 14.2974 40.206 14.5351 40.4326 14.7777L41.4305 13.8455C41.1984 13.5971 40.9668 13.3535 40.7356 13.1147L39.7544 14.0645Z" fill="#8C8C8C"/>
</svg>
