<svg width="77" height="28" viewBox="0 0 77 28" fill="none" xmlns="http://www.w3.org/2000/svg">
<path d="M74.5328 0.812514C75.2228 0.789059 75.8011 1.32936 75.8246 2.01932L76.2068 13.2628C76.2302 13.9528 75.6899 14.5311 75 14.5546C74.31 14.578 73.7317 14.0377 73.7082 13.3478L73.3685 3.35354L63.3742 3.6933C62.6843 3.71676 62.106 3.17645 62.0825 2.4865C62.059 1.79654 62.5994 1.2182 63.2893 1.19475L74.5328 0.812514ZM2.519 23.9836C3.19091 24.1421 3.60713 24.8153 3.44865 25.4872C3.29017 26.1591 2.61699 26.5754 1.94507 26.4169L2.519 23.9836ZM7.35448 27.3893C6.66982 27.3009 6.18652 26.6741 6.275 25.9894C6.36348 25.3048 6.99024 24.8215 7.6749 24.91L7.35448 27.3893ZM11.1668 25.2599C11.8553 25.3101 12.3729 25.9089 12.3227 26.5974C12.2726 27.2859 11.6738 27.8034 10.9852 27.7533L11.1668 25.2599ZM16.4378 27.952C15.7475 27.9504 15.1892 27.3894 15.1908 26.699C15.1925 26.0087 15.7535 25.4504 16.4438 25.4521L16.4378 27.952ZM19.9719 25.388C20.6618 25.3617 21.2423 25.8997 21.2685 26.5896C21.2948 27.2794 20.7568 27.8599 20.0669 27.8862L19.9719 25.388ZM25.4928 27.5293C24.8054 27.593 24.1965 27.0873 24.1328 26.3999C24.0691 25.7125 24.5748 25.1036 25.2622 25.0399L25.4928 27.5293ZM28.7775 24.6539C29.4623 24.5671 30.0879 25.0518 30.1748 25.7367C30.2617 26.4216 29.7769 27.0472 29.092 27.1341L28.7775 24.6539ZM34.462 26.3155C33.7824 26.4369 33.1331 25.9843 33.0117 25.3047C32.8904 24.6251 33.3429 23.9758 34.0225 23.8544L34.462 26.3155ZM37.5089 23.1608C38.1827 23.0102 38.8509 23.4344 39.0014 24.1081C39.152 24.7819 38.7278 25.4501 38.0541 25.6006L37.5089 23.1608ZM43.4326 24.1624C42.774 24.3691 42.0724 24.0028 41.8656 23.3442C41.6588 22.6855 42.0252 21.9839 42.6838 21.7771L43.4326 24.1624ZM46.0547 20.6089C46.7 20.3637 47.4219 20.6881 47.6672 21.3335C47.9124 21.9788 47.588 22.7007 46.9426 22.9459L46.0547 20.6089ZM52.0583 20.7402C51.4368 21.0409 50.6893 20.7808 50.3887 20.1594C50.088 19.5379 50.3481 18.7904 50.9695 18.4898L52.0583 20.7402ZM54.1412 16.8432C54.7448 16.5082 55.5057 16.7259 55.8407 17.3295C56.1758 17.9331 55.9581 18.6941 55.3544 19.0291L54.1412 16.8432ZM60.1056 16.1366C59.5304 16.5184 58.7547 16.3616 58.3729 15.7864C57.9911 15.2112 58.1479 14.4354 58.7231 14.0537L60.1056 16.1366ZM61.6567 11.9997C62.2125 11.5902 62.995 11.7086 63.4046 12.2644C63.8142 12.8201 63.6957 13.6026 63.1399 14.0122L61.6567 11.9997ZM67.4879 10.5698C66.9613 11.0162 66.1725 10.9511 65.7262 10.4245C65.2798 9.89784 65.3449 9.10906 65.8715 8.6627L67.4879 10.5698ZM68.5611 6.28407C69.0688 5.81621 69.8596 5.84846 70.3274 6.35609C70.7953 6.86373 70.763 7.65453 70.2554 8.12239L68.5611 6.28407ZM74.2166 4.25296C73.7365 4.749 72.9451 4.7619 72.4491 4.28176C71.953 3.80162 71.9401 3.01027 72.4203 2.51423L74.2166 4.25296ZM0.836576 23.5507C1.38995 23.7055 1.95104 23.8497 2.519 23.9836L1.94507 26.4169C1.34519 26.2754 0.750898 26.1227 0.163212 25.9584L0.836576 23.5507ZM7.6749 24.91C8.82669 25.0588 9.9928 25.1744 11.1668 25.2599L10.9852 27.7533C9.76819 27.6647 8.55565 27.5446 7.35448 27.3893L7.6749 24.91ZM16.4438 25.4521C17.6248 25.4549 18.803 25.4324 19.9719 25.388L20.0669 27.8862C18.8663 27.9318 17.6543 27.955 16.4378 27.952L16.4438 25.4521ZM25.2622 25.0399C26.4592 24.929 27.6336 24.799 28.7775 24.6539L29.092 27.1341C27.9214 27.2826 26.7189 27.4157 25.4928 27.5293L25.2622 25.0399ZM34.0225 23.8544C34.6164 23.7483 35.1955 23.6394 35.7582 23.5285L36.2418 25.9813C35.6644 26.0951 35.0706 26.2068 34.462 26.3155L34.0225 23.8544ZM35.7582 23.5285C36.3276 23.4163 36.9114 23.2943 37.5089 23.1608L38.0541 25.6006C37.4346 25.739 36.8302 25.8653 36.2418 25.9813L35.7582 23.5285ZM42.6838 21.7771C43.7754 21.4345 44.8999 21.0477 46.0547 20.6089L46.9426 22.9459C45.74 23.4029 44.569 23.8056 43.4326 24.1624L42.6838 21.7771ZM50.9695 18.4898C52.0081 17.9873 53.0658 17.4401 54.1412 16.8432L55.3544 19.0291C54.2377 19.6489 53.1384 20.2177 52.0583 20.7402L50.9695 18.4898ZM58.7231 14.0537C59.6898 13.412 60.668 12.7284 61.6567 11.9997L63.1399 14.0122C62.1183 14.7651 61.1065 15.4722 60.1056 16.1366L58.7231 14.0537ZM65.8715 8.6627C66.7613 7.90852 67.6581 7.11635 68.5611 6.28407L70.2554 8.12239C69.3272 8.9779 68.4044 9.79303 67.4879 10.5698L65.8715 8.6627ZM72.4203 2.51423C72.8331 2.08773 73.247 1.65253 73.6619 1.20845L75.4887 2.91513C75.0638 3.36992 74.6398 3.8158 74.2166 4.25296L72.4203 2.51423Z" fill="#8C8C8C"/>
</svg>
