<svg width="42" height="16" viewBox="0 0 42 16" fill="none" xmlns="http://www.w3.org/2000/svg">
<path d="M40.9083 0.367828C41.2852 0.355015 41.6011 0.650148 41.6139 1.02702L41.8227 7.16857C41.8355 7.54544 41.5404 7.86135 41.1635 7.87416C40.7866 7.88697 40.4707 7.59184 40.4579 7.21496L40.2723 1.75581L34.8132 1.9414C34.4363 1.95422 34.1204 1.65908 34.1076 1.28221C34.0948 0.905331 34.3899 0.589427 34.7668 0.576616L40.9083 0.367828ZM1.5722 13.0246C1.93922 13.1112 2.16657 13.4789 2.08 13.8459C1.99344 14.2129 1.62573 14.4403 1.2587 14.3537L1.5722 13.0246ZM4.21349 14.8849C3.8395 14.8366 3.57551 14.4942 3.62384 14.1202C3.67217 13.7462 4.01453 13.4823 4.38851 13.5306L4.21349 14.8849ZM6.2959 13.7217C6.672 13.7491 6.95468 14.0762 6.9273 14.4523C6.89991 14.8284 6.57282 15.1111 6.19672 15.0837L6.2959 13.7217ZM9.17508 15.1923C8.79799 15.1914 8.49303 14.8849 8.49394 14.5078C8.49485 14.1307 8.80127 13.8258 9.17837 13.8267L9.17508 15.1923ZM11.1055 13.7917C11.4823 13.7774 11.7994 14.0712 11.8138 14.448C11.8281 14.8249 11.5342 15.142 11.1574 15.1563L11.1055 13.7917ZM14.1212 14.9613C13.7457 14.9961 13.4131 14.7199 13.3783 14.3444C13.3435 13.969 13.6197 13.6364 13.9952 13.6016L14.1212 14.9613ZM15.9154 13.3907C16.2895 13.3433 16.6312 13.6081 16.6786 13.9822C16.7261 14.3563 16.4613 14.698 16.0872 14.7455L15.9154 13.3907ZM19.0205 14.2983C18.6492 14.3646 18.2946 14.1174 18.2283 13.7462C18.162 13.375 18.4091 13.0203 18.7804 12.954L19.0205 14.2983ZM20.6848 12.5751C21.0528 12.4929 21.4178 12.7246 21.5 13.0926C21.5822 13.4606 21.3506 13.8256 20.9825 13.9078L20.6848 12.5751ZM23.9205 13.1222C23.5607 13.2352 23.1775 13.0351 23.0645 12.6753C22.9516 12.3155 23.1517 11.9323 23.5115 11.8193L23.9205 13.1222ZM25.3527 11.1812C25.7052 11.0473 26.0996 11.2245 26.2335 11.577C26.3674 11.9295 26.1903 12.3238 25.8378 12.4578L25.3527 11.1812ZM28.6321 11.253C28.2926 11.4172 27.8843 11.2751 27.7201 10.9357C27.5558 10.5962 27.6979 10.1879 28.0374 10.0237L28.6321 11.253ZM29.7698 9.12429C30.0995 8.94128 30.5152 9.06021 30.6982 9.38992C30.8812 9.71963 30.7622 10.1353 30.4325 10.3183L29.7698 9.12429ZM33.0278 8.7383C32.7136 8.94684 32.2898 8.8612 32.0813 8.54701C31.8728 8.23283 31.9584 7.80908 32.2726 7.60054L33.0278 8.7383ZM33.875 6.47863C34.1786 6.25491 34.606 6.31963 34.8298 6.62319C35.0535 6.92674 34.9888 7.35419 34.6852 7.57791L33.875 6.47863ZM37.0602 5.69757C36.7725 5.94139 36.3417 5.90584 36.0979 5.61818C35.8541 5.33051 35.8896 4.89966 36.1773 4.65584L37.0602 5.69757ZM37.6464 3.35656C37.9237 3.101 38.3557 3.11861 38.6112 3.3959C38.8668 3.67319 38.8492 4.10515 38.5719 4.36071L37.6464 3.35656ZM40.7356 2.2471C40.4734 2.51806 40.0411 2.5251 39.7701 2.26284C39.4992 2.00057 39.4921 1.56831 39.7544 1.29735L40.7356 2.2471ZM0.65321 12.7881C0.95548 12.8727 1.26197 12.9514 1.5722 13.0246L1.2587 14.3537C0.93103 14.2764 0.60641 14.193 0.285398 14.1033L0.65321 12.7881ZM4.38851 13.5306C5.01766 13.6119 5.65462 13.675 6.2959 13.7217L6.19672 15.0837C5.53193 15.0353 4.8696 14.9697 4.21349 14.8849L4.38851 13.5306ZM9.17837 13.8267C9.82344 13.8282 10.467 13.816 11.1055 13.7917L11.1574 15.1563C10.5016 15.1812 9.83959 15.1939 9.17508 15.1923L9.17837 13.8267ZM13.9952 13.6016C14.6491 13.541 15.2906 13.47 15.9154 13.3907L16.0872 14.7455C15.4477 14.8266 14.7909 14.8993 14.1212 14.9613L13.9952 13.6016ZM18.7804 12.954C19.1048 12.8961 19.4211 12.8366 19.7285 12.776L19.9926 14.1158C19.6772 14.178 19.3529 14.239 19.0205 14.2983L18.7804 12.954ZM19.7285 12.776C20.0395 12.7147 20.3584 12.6481 20.6848 12.5751L20.9825 13.9078C20.6442 13.9835 20.314 14.0524 19.9926 14.1158L19.7285 12.776ZM23.5115 11.8193C24.1077 11.6322 24.7219 11.4209 25.3527 11.1812L25.8378 12.4578C25.1808 12.7074 24.5412 12.9274 23.9205 13.1222L23.5115 11.8193ZM28.0374 10.0237C28.6046 9.74923 29.1824 9.45031 29.7698 9.12429L30.4325 10.3183C29.8226 10.6568 29.2221 10.9675 28.6321 11.253L28.0374 10.0237ZM32.2726 7.60054C32.8006 7.25007 33.335 6.87667 33.875 6.47863L34.6852 7.57791C34.1272 7.98918 33.5745 8.37542 33.0278 8.7383L32.2726 7.60054ZM36.1773 4.65584C36.6633 4.24389 37.1532 3.81117 37.6464 3.35656L38.5719 4.36071C38.0648 4.82801 37.5608 5.27326 37.0602 5.69757L36.1773 4.65584ZM39.7544 1.29735C39.9799 1.06439 40.206 0.82667 40.4326 0.5841L41.4305 1.51634C41.1984 1.76476 40.9668 2.00831 40.7356 2.2471L39.7544 1.29735Z" fill="#8C8C8C"/>
</svg>
