<svg width="67" height="19" viewBox="0 0 67 19" fill="none" xmlns="http://www.w3.org/2000/svg">
<path d="M0.739803 6.2052C0.139501 5.86427 -0.0707682 5.10126 0.270155 4.50096C0.611078 3.90066 1.37409 3.69039 1.97439 4.03131L0.739803 6.2052ZM66.0622 6.25436C66.6769 6.56849 66.9206 7.3215 66.6065 7.93624L61.4874 17.9541C61.1732 18.5688 60.4202 18.8125 59.8055 18.4984C59.1907 18.1843 58.9471 17.4312 59.2612 16.8165L63.8115 7.91175L54.9068 3.36143C54.292 3.04729 54.0483 2.29429 54.3625 1.67954C54.6766 1.0648 55.4296 0.821107 56.0443 1.13524L66.0622 6.25436ZM3.60273 4.92714C4.21211 5.25157 4.44311 6.00856 4.11868 6.61794C3.79425 7.22731 3.03726 7.45831 2.42788 7.13388L3.60273 4.92714ZM7.64732 9.62903C7.01181 9.35937 6.71522 8.62558 6.98488 7.99007C7.25454 7.35456 7.98832 7.05797 8.62383 7.32763L7.64732 9.62903ZM12.0786 8.6688C12.7297 8.89834 13.0714 9.61223 12.8418 10.2633C12.6123 10.9144 11.8984 11.2561 11.2473 11.0266L12.0786 8.6688ZM16.7978 12.69C16.1278 12.5237 15.7195 11.8457 15.8858 11.1757C16.0521 10.5057 16.7301 10.0973 17.4001 10.2636L16.7978 12.69ZM21.0229 11.0419C21.7021 11.1657 22.1524 11.8165 22.0287 12.4957C21.905 13.1749 21.2541 13.6252 20.5749 13.5015L21.0229 11.0419ZM26.3111 14.2772C25.6235 14.2154 25.1162 13.6079 25.1781 12.9203C25.2399 12.2327 25.8474 11.7255 26.535 11.7873L26.3111 14.2772ZM30.2414 12.0148C30.9314 12.0379 31.472 12.616 31.4488 13.306C31.4257 13.9959 30.8476 14.5365 30.1576 14.5134L30.2414 12.0148ZM35.9276 14.4807C35.2379 14.5106 34.6545 13.9757 34.6246 13.286C34.5947 12.5963 35.1296 12.0129 35.8193 11.983L35.9276 14.4807ZM39.5382 11.7346C40.2258 11.673 40.8331 12.1804 40.8948 12.868C40.9564 13.5556 40.4489 14.163 39.7613 14.2246L39.5382 11.7346ZM45.4753 13.5305C44.7928 13.6343 44.1553 13.1652 44.0515 12.4827C43.9477 11.8002 44.4169 11.1628 45.0994 11.059L45.4753 13.5305ZM48.7811 10.4294C49.4594 10.3009 50.1134 10.7466 50.2419 11.4249C50.3704 12.1032 49.9247 12.7572 49.2464 12.8857L48.7811 10.4294ZM54.8571 11.6788C54.1858 11.8398 53.511 11.4261 53.35 10.7548C53.189 10.0834 53.6027 9.40871 54.274 9.2477L54.8571 11.6788ZM57.9065 8.32087C58.573 8.14088 59.2592 8.53525 59.4392 9.20173C59.6192 9.86821 59.2248 10.5544 58.5583 10.7344L57.9065 8.32087ZM64.053 9.13597C63.3938 9.34098 62.6932 8.97278 62.4882 8.31356C62.2832 7.65435 62.6514 6.95376 63.3106 6.74875L64.053 9.13597ZM1.97439 4.03131C2.51408 4.33781 3.05677 4.63647 3.60273 4.92714L2.42788 7.13388C1.86146 6.83233 1.29886 6.52269 0.739803 6.2052L1.97439 4.03131ZM8.62383 7.32763C9.75815 7.80893 10.909 8.25645 12.0786 8.6688L11.2473 11.0266C10.0278 10.5966 8.82847 10.1302 7.64732 9.62903L8.62383 7.32763ZM17.4001 10.2636C18.5862 10.558 19.7932 10.8179 21.0229 11.0419L20.5749 13.5015C19.2934 13.268 18.035 12.9971 16.7978 12.69L17.4001 10.2636ZM26.535 11.7873C27.7473 11.8963 28.9822 11.9726 30.2414 12.0148L30.1576 14.5134C28.8524 14.4696 27.5707 14.3906 26.3111 14.2772L26.535 11.7873ZM35.8193 11.983C37.0362 11.9303 38.2755 11.8478 39.5382 11.7346L39.7613 14.2246C38.4614 14.3411 37.1839 14.4262 35.9276 14.4807L35.8193 11.983ZM45.0994 11.059C46.3057 10.8755 47.5326 10.6659 48.7811 10.4294L49.2464 12.8857C47.969 13.1277 46.7123 13.3424 45.4753 13.5305L45.0994 11.059ZM54.274 9.2477C55.4658 8.96186 56.6764 8.65308 57.9065 8.32087L58.5583 10.7344C57.3061 11.0726 56.0726 11.3872 54.8571 11.6788L54.274 9.2477ZM63.3106 6.74875C63.9055 6.56373 64.5048 6.37355 65.1085 6.17818L65.8783 8.55672C65.2656 8.755 64.6572 8.94807 64.053 9.13597L63.3106 6.74875Z" fill="#8C8C8C"/>
</svg>
