<svg width="77" height="28" viewBox="0 0 77 28" fill="none" xmlns="http://www.w3.org/2000/svg">
<path d="M74.5328 27.8262C75.2228 27.8496 75.8011 27.3093 75.8246 26.6193L76.2068 15.3758C76.2302 14.6859 75.6899 14.1076 75 14.0841C74.31 14.0606 73.7317 14.6009 73.7082 15.2909L73.3685 25.2851L63.3742 24.9454C62.6843 24.9219 62.106 25.4622 62.0825 26.1522C62.059 26.8421 62.5994 27.4205 63.2893 27.4439L74.5328 27.8262ZM2.519 4.65503C3.19091 4.49655 3.60713 3.82338 3.44865 3.15146C3.29017 2.47954 2.61699 2.06332 1.94507 2.2218L2.519 4.65503ZM7.35448 1.24933C6.66982 1.33781 6.18652 1.96457 6.275 2.64923C6.36348 3.33389 6.99024 3.81719 7.6749 3.72871L7.35448 1.24933ZM11.1668 3.37876C11.8553 3.32862 12.3729 2.72981 12.3227 2.04127C12.2726 1.35274 11.6738 0.835223 10.9852 0.885366L11.1668 3.37876ZM16.4378 0.686627C15.7475 0.688288 15.1892 1.24928 15.1908 1.93963C15.1925 2.62998 15.7535 3.18828 16.4438 3.18662L16.4378 0.686627ZM19.9719 3.25069C20.6618 3.27693 21.2423 2.73896 21.2685 2.0491C21.2948 1.35924 20.7568 0.778733 20.0669 0.752496L19.9719 3.25069ZM25.4928 1.1094C24.8054 1.04572 24.1965 1.55135 24.1328 2.23877C24.0691 2.92618 24.5748 3.53506 25.2622 3.59874L25.4928 1.1094ZM28.7775 3.98473C29.4623 4.0716 30.0879 3.58683 30.1748 2.90196C30.2617 2.21709 29.7769 1.59148 29.092 1.50461L28.7775 3.98473ZM34.462 2.32319C33.7824 2.20181 33.1331 2.65434 33.0117 3.33394C32.8904 4.01354 33.3429 4.66286 34.0225 4.78424L34.462 2.32319ZM37.5089 5.4779C38.1827 5.62844 38.8509 5.2043 39.0014 4.53056C39.152 3.85682 38.7278 3.1886 38.0541 3.03806L37.5089 5.4779ZM43.4326 4.4763C42.774 4.26952 42.0724 4.63585 41.8656 5.29452C41.6588 5.95318 42.0252 6.65475 42.6838 6.86153L43.4326 4.4763ZM46.0547 8.02972C46.7 8.27493 47.4219 7.95056 47.6672 7.30522C47.9124 6.65988 47.588 5.93794 46.9426 5.69274L46.0547 8.02972ZM52.0583 7.89844C51.4368 7.5978 50.6893 7.85786 50.3887 8.47931C50.088 9.10076 50.3481 9.84827 50.9695 10.1489L52.0583 7.89844ZM54.1412 11.7955C54.7448 12.1305 55.5057 11.9128 55.8407 11.3091C56.1758 10.7055 55.9581 9.94462 55.3544 9.60959L54.1412 11.7955ZM60.1056 12.5021C59.5304 12.1203 58.7547 12.2771 58.3729 12.8523C57.9911 13.4275 58.1479 14.2032 58.7231 14.585L60.1056 12.5021ZM61.6567 16.6389C62.2125 17.0485 62.995 16.93 63.4046 16.3743C63.8142 15.8186 63.6957 15.036 63.1399 14.6264L61.6567 16.6389ZM67.4879 18.0688C66.9613 17.6225 66.1725 17.6876 65.7262 18.2142C65.2798 18.7408 65.3449 19.5296 65.8715 19.976L67.4879 18.0688ZM68.5611 22.3546C69.0688 22.8225 69.8596 22.7902 70.3274 22.2826C70.7953 21.7749 70.763 20.9841 70.2554 20.5163L68.5611 22.3546ZM74.2166 24.3857C73.7365 23.8897 72.9451 23.8768 72.4491 24.3569C71.953 24.8371 71.9401 25.6284 72.4203 26.1244L74.2166 24.3857ZM0.836576 5.08792C1.38995 4.93316 1.95104 4.789 2.519 4.65503L1.94507 2.2218C1.34519 2.3633 0.750898 2.51595 0.163212 2.68032L0.836576 5.08792ZM7.6749 3.72871C8.82669 3.57986 9.9928 3.46426 11.1668 3.37876L10.9852 0.885366C9.76819 0.973997 8.55565 1.0941 7.35448 1.24933L7.6749 3.72871ZM16.4438 3.18662C17.6248 3.18378 18.803 3.20623 19.9719 3.25069L20.0669 0.752496C18.8663 0.706832 17.6543 0.683702 16.4378 0.686627L16.4438 3.18662ZM25.2622 3.59874C26.4592 3.70963 27.6336 3.83965 28.7775 3.98473L29.092 1.50461C27.9214 1.35611 26.7189 1.22299 25.4928 1.1094L25.2622 3.59874ZM34.0225 4.78424C34.6164 4.89033 35.1955 4.99923 35.7582 5.11016L36.2418 2.65737C35.6644 2.54355 35.0706 2.43189 34.462 2.32319L34.0225 4.78424ZM35.7582 5.11016C36.3276 5.22241 36.9114 5.34438 37.5089 5.4779L38.0541 3.03806C37.4346 2.89964 36.8302 2.77337 36.2418 2.65737L35.7582 5.11016ZM42.6838 6.86153C43.7754 7.20419 44.8999 7.59094 46.0547 8.02972L46.9426 5.69274C45.74 5.23577 44.569 4.83303 43.4326 4.4763L42.6838 6.86153ZM50.9695 10.1489C52.0081 10.6513 53.0658 11.1986 54.1412 11.7955L55.3544 9.60959C54.2377 8.98978 53.1384 8.42101 52.0583 7.89844L50.9695 10.1489ZM58.7231 14.585C59.6898 15.2266 60.668 15.9102 61.6567 16.6389L63.1399 14.6264C62.1183 13.8735 61.1065 13.1664 60.1056 12.5021L58.7231 14.585ZM65.8715 19.976C66.7613 20.7301 67.6581 21.5223 68.5611 22.3546L70.2554 20.5163C69.3272 19.6608 68.4044 18.8456 67.4879 18.0688L65.8715 19.976ZM72.4203 26.1244C72.8331 26.5509 73.247 26.9861 73.6619 27.4302L75.4887 25.7235C75.0638 25.2688 74.6398 24.8229 74.2166 24.3857L72.4203 26.1244Z" fill="#8C8C8C"/>
</svg>
