<svg width="38" height="10" viewBox="0 0 38 10" fill="none" xmlns="http://www.w3.org/2000/svg">
<path d="M1.33151 7.07879C1.0036 7.26501 0.888747 7.6818 1.07497 8.0097C1.26119 8.3376 1.67797 8.45246 2.00588 8.26623L1.33151 7.07879ZM37.0126 7.05194C37.3484 6.88035 37.4815 6.46904 37.3099 6.13324L34.5137 0.661195C34.3421 0.325402 33.9308 0.19229 33.595 0.36388C33.2592 0.535469 33.1261 0.946783 33.2977 1.28258L35.7832 6.14662L30.9191 8.63215C30.5834 8.80374 30.4502 9.21505 30.6218 9.55084C30.7934 9.88663 31.2047 10.0197 31.5405 9.84816L37.0126 7.05194ZM2.89533 7.77691C3.22818 7.59969 3.35436 7.1862 3.17715 6.85334C2.99994 6.52048 2.58645 6.3943 2.25359 6.57151L2.89533 7.77691ZM5.1046 5.20859C4.75747 5.35589 4.59546 5.7567 4.74276 6.10384C4.89005 6.45098 5.29087 6.61298 5.638 6.46568L5.1046 5.20859ZM7.52509 5.7331C7.88073 5.60771 8.06739 5.21777 7.94201 4.86213C7.81662 4.50649 7.42668 4.31983 7.07104 4.44522L7.52509 5.7331ZM10.1029 3.53659C9.7369 3.62743 9.51385 3.99776 9.60469 4.36375C9.69554 4.72974 10.0659 4.95279 10.4319 4.86195L10.1029 3.53659ZM12.4108 4.43681C12.7818 4.36923 13.0277 4.0137 12.9601 3.64271C12.8926 3.27172 12.537 3.02576 12.166 3.09334L12.4108 4.43681ZM15.2993 2.66959C14.9237 2.70338 14.6466 3.03523 14.6804 3.41081C14.7142 3.78638 15.0461 4.06346 15.4216 4.02968L15.2993 2.66959ZM17.4462 3.90542C17.8231 3.89278 18.1184 3.57702 18.1057 3.20014C18.0931 2.82326 17.7773 2.52798 17.4004 2.54061L17.4462 3.90542ZM20.5522 2.55846C20.1754 2.54213 19.8568 2.8343 19.8404 3.21104C19.8241 3.58778 20.1163 3.90642 20.493 3.92276L20.5522 2.55846ZM22.5244 4.05846C22.8999 4.09212 23.2317 3.81493 23.2654 3.43935C23.299 3.06376 23.0218 2.732 22.6462 2.69833L22.5244 4.05846ZM25.7674 3.07747C25.3946 3.02077 25.0464 3.27703 24.9897 3.64983C24.933 4.02264 25.1892 4.37082 25.5621 4.42752L25.7674 3.07747ZM27.5731 4.77142C27.9436 4.8416 28.3009 4.59814 28.3711 4.22763C28.4412 3.85713 28.1978 3.49988 27.8273 3.4297L27.5731 4.77142ZM30.892 4.08897C30.5253 4.00102 30.1568 4.22699 30.0688 4.59368C29.9809 4.96038 30.2068 5.32894 30.5735 5.41689L30.892 4.08897ZM32.5577 5.92315C32.9217 6.02147 33.2966 5.80605 33.3949 5.442C33.4932 5.07795 33.2778 4.70312 32.9137 4.6048L32.5577 5.92315ZM35.9151 5.47792C35.555 5.36593 35.1723 5.56706 35.0603 5.92714C34.9484 6.28722 35.1495 6.66991 35.5096 6.78189L35.9151 5.47792ZM2.00588 8.26623C2.30067 8.09882 2.5971 7.93568 2.89533 7.77691L2.25359 6.57151C1.94419 6.73623 1.63688 6.90537 1.33151 7.07879L2.00588 8.26623ZM5.638 6.46568C6.2576 6.20278 6.88624 5.95833 7.52509 5.7331L7.07104 4.44522C6.40487 4.68008 5.74978 4.93483 5.1046 5.20859L5.638 6.46568ZM10.4319 4.86195C11.0797 4.70114 11.739 4.55918 12.4108 4.43681L12.166 3.09334C11.466 3.22086 10.7787 3.36885 10.1029 3.53659L10.4319 4.86195ZM15.4216 4.02968C16.0838 3.97011 16.7584 3.92848 17.4462 3.90542L17.4004 2.54061C16.6875 2.56452 15.9874 2.6077 15.2993 2.66959L15.4216 4.02968ZM20.493 3.92276C21.1577 3.95157 21.8346 3.99665 22.5244 4.05846L22.6462 2.69833C21.9362 2.6347 21.2384 2.58821 20.5522 2.55846L20.493 3.92276ZM25.5621 4.42752C26.221 4.52773 26.8912 4.64224 27.5731 4.77142L27.8273 3.4297C27.1296 3.29754 26.4431 3.18023 25.7674 3.07747L25.5621 4.42752ZM30.5735 5.41689C31.2245 5.57302 31.8858 5.74168 32.5577 5.92315L32.9137 4.6048C32.2297 4.42007 31.5559 4.24821 30.892 4.08897L30.5735 5.41689ZM35.5096 6.78189C35.8345 6.88295 36.1619 6.98683 36.4917 7.09355L36.9121 5.79432C36.5775 5.68601 36.2451 5.58055 35.9151 5.47792L35.5096 6.78189Z" fill="#8C8C8C"/>
</svg>
