<svg width="38" height="11" viewBox="0 0 38 11" fill="none" xmlns="http://www.w3.org/2000/svg">
<path d="M1.33151 3.6092C1.0036 3.42297 0.888747 3.00619 1.07497 2.67829C1.26119 2.35039 1.67797 2.23553 2.00588 2.42175L1.33151 3.6092ZM37.0126 3.63605C37.3484 3.80764 37.4815 4.21895 37.3099 4.55474L34.5137 10.0268C34.3421 10.3626 33.9308 10.4957 33.595 10.3241C33.2592 10.1525 33.1261 9.7412 33.2977 9.40541L35.7832 4.54137L30.9191 2.05584C30.5834 1.88425 30.4502 1.47294 30.6218 1.13715C30.7934 0.801354 31.2047 0.668242 31.5405 0.839832L37.0126 3.63605ZM2.89533 2.91108C3.22818 3.08829 3.35436 3.50179 3.17715 3.83465C2.99994 4.16751 2.58645 4.29369 2.25359 4.11647L2.89533 2.91108ZM5.1046 5.4794C4.75747 5.3321 4.59546 4.93129 4.74276 4.58415C4.89005 4.23701 5.29087 4.07501 5.638 4.2223L5.1046 5.4794ZM7.52509 4.95489C7.88073 5.08027 8.06739 5.47022 7.94201 5.82586C7.81662 6.1815 7.42668 6.36815 7.07104 6.24277L7.52509 4.95489ZM10.1029 7.1514C9.7369 7.06056 9.51385 6.69023 9.60469 6.32424C9.69554 5.95825 10.0659 5.7352 10.4319 5.82604L10.1029 7.1514ZM12.4108 6.25118C12.7818 6.31876 13.0277 6.67429 12.9601 7.04528C12.8926 7.41626 12.537 7.66222 12.166 7.59464L12.4108 6.25118ZM15.2993 8.0184C14.9237 7.98461 14.6466 7.65276 14.6804 7.27718C14.7142 6.90161 15.0461 6.62453 15.4216 6.65831L15.2993 8.0184ZM17.4462 6.78257C17.8231 6.7952 18.1184 7.11097 18.1057 7.48785C18.0931 7.86473 17.7773 8.16001 17.4004 8.14738L17.4462 6.78257ZM20.5522 8.12953C20.1754 8.14586 19.8568 7.85369 19.8404 7.47695C19.8241 7.10021 20.1163 6.78156 20.493 6.76523L20.5522 8.12953ZM22.5244 6.62953C22.8999 6.59587 23.2317 6.87305 23.2654 7.24864C23.299 7.62423 23.0218 7.95599 22.6462 7.98965L22.5244 6.62953ZM25.7674 7.61052C25.3946 7.66722 25.0464 7.41096 24.9897 7.03816C24.933 6.66535 25.1892 6.31717 25.5621 6.26047L25.7674 7.61052ZM27.5731 5.91657C27.9436 5.84639 28.3009 6.08985 28.3711 6.46036C28.4412 6.83086 28.1978 7.18811 27.8273 7.25829L27.5731 5.91657ZM30.892 6.59902C30.5253 6.68697 30.1568 6.461 30.0688 6.09431C29.9809 5.72761 30.2068 5.35905 30.5735 5.2711L30.892 6.59902ZM32.5577 4.76484C32.9217 4.66652 33.2966 4.88194 33.3949 5.24599C33.4932 5.61004 33.2778 5.98487 32.9137 6.08319L32.5577 4.76484ZM35.9151 5.21007C35.555 5.32205 35.1723 5.12093 35.0603 4.76085C34.9484 4.40077 35.1495 4.01808 35.5096 3.9061L35.9151 5.21007ZM2.00588 2.42175C2.30067 2.58917 2.5971 2.75231 2.89533 2.91108L2.25359 4.11647C1.94419 3.95175 1.63688 3.78262 1.33151 3.6092L2.00588 2.42175ZM5.638 4.2223C6.2576 4.48521 6.88624 4.72966 7.52509 4.95489L7.07104 6.24277C6.40487 6.00791 5.74978 5.75315 5.1046 5.4794L5.638 4.2223ZM10.4319 5.82604C11.0797 5.98685 11.739 6.12881 12.4108 6.25118L12.166 7.59464C11.466 7.46713 10.7787 7.31914 10.1029 7.1514L10.4319 5.82604ZM15.4216 6.65831C16.0838 6.71788 16.7584 6.7595 17.4462 6.78257L17.4004 8.14738C16.6875 8.12347 15.9874 8.08029 15.2993 8.0184L15.4216 6.65831ZM20.493 6.76523C21.1577 6.73641 21.8346 6.69134 22.5244 6.62953L22.6462 7.98965C21.9362 8.05329 21.2384 8.09978 20.5522 8.12953L20.493 6.76523ZM25.5621 6.26047C26.221 6.16026 26.8912 6.04575 27.5731 5.91657L27.8273 7.25829C27.1296 7.39045 26.4431 7.50776 25.7674 7.61052L25.5621 6.26047ZM30.5735 5.2711C31.2245 5.11497 31.8858 4.9463 32.5577 4.76484L32.9137 6.08319C32.2297 6.26791 31.5559 6.43978 30.892 6.59902L30.5735 5.2711ZM35.5096 3.9061C35.8345 3.80503 36.1619 3.70116 36.4917 3.59444L36.9121 4.89367C36.5775 5.00197 36.2451 5.10743 35.9151 5.21007L35.5096 3.9061Z" fill="#8C8C8C"/>
</svg>
