<svg width="159" height="40" viewBox="0 0 159 40" fill="none" xmlns="http://www.w3.org/2000/svg">
<path d="M61.5006 4.09943L61.7424 5.32582L61.5006 4.09943ZM157.586 29.1365C158.266 29.0162 158.72 28.3677 158.6 27.6879L156.64 16.6098C156.52 15.93 155.872 15.4764 155.192 15.5966C154.512 15.7168 154.058 16.3654 154.179 17.0452L155.92 26.8924L146.073 28.6339C145.393 28.7542 144.94 29.4027 145.06 30.0825C145.18 30.7623 145.829 31.216 146.508 31.0957L157.586 29.1365ZM3.29009 37.9933C3.76801 37.4951 3.75158 36.7038 3.2534 36.2259C2.75522 35.748 1.96393 35.7644 1.48601 36.2626L3.29009 37.9933ZM5.84548 31.9519C5.34199 32.4243 5.31672 33.2153 5.78904 33.7188C6.26136 34.2223 7.05241 34.2476 7.5559 33.7752L5.84548 31.9519ZM10.5194 31.0908C11.039 30.6363 11.0918 29.8466 10.6373 29.327C10.1828 28.8074 9.39315 28.7546 8.87351 29.2091L10.5194 31.0908ZM13.5917 25.2939C13.0492 25.7209 12.9555 26.5068 13.3824 27.0493C13.8094 27.5918 14.5953 27.6855 15.1378 27.2585L13.5917 25.2939ZM18.323 24.8394C18.8798 24.4314 19.0005 23.6492 18.5924 23.0923C18.1844 22.5355 17.4022 22.4148 16.8453 22.8229L18.323 24.8394ZM21.8803 19.3285C21.3032 19.7075 21.1426 20.4825 21.5215 21.0595C21.9005 21.6366 22.6755 21.7972 23.2525 21.4182L21.8803 19.3285ZM26.6343 19.2793C27.224 18.9203 27.4109 18.1512 27.0519 17.5616C26.6929 16.9719 25.9239 16.7849 25.3342 17.1439L26.6343 19.2793ZM30.649 14.0923C30.0416 14.4205 29.8154 15.1789 30.1436 15.7863C30.4719 16.3936 31.2303 16.6198 31.8377 16.2916L30.649 14.0923ZM35.3882 14.451C36.0064 14.1439 36.2587 13.3937 35.9516 12.7754C35.6445 12.1571 34.8944 11.9048 34.2761 12.2119L35.3882 14.451ZM39.8358 9.6297C39.2022 9.90389 38.9109 10.6398 39.1851 11.2733C39.4593 11.9069 40.1952 12.1982 40.8287 11.9241L39.8358 9.6297ZM44.5268 10.4014C45.1698 10.1501 45.4873 9.42514 45.236 8.78215C44.9846 8.13917 44.2597 7.82165 43.6167 8.07297L44.5268 10.4014ZM49.3896 5.99815C48.7336 6.21337 48.3764 6.91959 48.5916 7.57554C48.8068 8.2315 49.513 8.58878 50.169 8.37356L49.3896 5.99815ZM53.9879 7.20141C54.6517 7.01175 55.0361 6.3199 54.8464 5.6561C54.6568 4.99231 53.9649 4.60794 53.3011 4.7976L53.9879 7.20141ZM59.2539 3.29131C58.5796 3.43963 58.1533 4.10644 58.3016 4.78068C58.4499 5.45491 59.1168 5.88125 59.791 5.73293L59.2539 3.29131ZM63.7193 4.95182C64.3987 4.82885 64.8497 4.17846 64.7267 3.49915C64.6037 2.81984 63.9533 2.36883 63.274 2.4918L63.7193 4.95182ZM69.3683 1.54752C68.6836 1.63524 68.1996 2.26146 68.2873 2.94622C68.375 3.63098 69.0012 4.11497 69.686 4.02725L69.3683 1.54752ZM73.6797 3.58975C74.3672 3.5273 74.8739 2.91932 74.8115 2.2318C74.749 1.54427 74.1411 1.03755 73.4535 1.1L73.6797 3.58975ZM79.6101 0.716654C78.9201 0.739805 78.3796 1.3179 78.4027 2.00787C78.4259 2.69784 79.004 3.2384 79.694 3.21525L79.6101 0.716654ZM83.7206 3.15798C84.411 3.16153 84.9735 2.60476 84.977 1.91442C84.9806 1.22407 84.4238 0.66156 83.7335 0.658017L83.7206 3.15798ZM89.897 0.868206C89.208 0.824748 88.6142 1.34805 88.5708 2.03704C88.5273 2.72602 89.0506 3.31979 89.7396 3.36325L89.897 0.868206ZM93.7442 3.69299C94.431 3.76277 95.0444 3.26256 95.1141 2.57574C95.1839 1.88892 94.6837 1.27558 93.9969 1.2058L93.7442 3.69299ZM100.117 2.00332C99.4353 1.89492 98.7947 2.35974 98.6863 3.04153C98.5779 3.72333 99.0427 4.3639 99.7245 4.47231L100.117 2.00332ZM103.691 5.17821C104.368 5.31162 105.025 4.87068 105.159 4.19333C105.292 3.51599 104.851 2.85875 104.174 2.72534L103.691 5.17821ZM110.189 4.07913C109.52 3.90972 108.84 4.31492 108.67 4.98417C108.501 5.65341 108.906 6.33328 109.576 6.50269L110.189 4.07913ZM113.458 7.55734C114.121 7.74968 114.815 7.36812 115.007 6.7051C115.199 6.04208 114.818 5.34867 114.155 5.15633L113.458 7.55734ZM120.027 7.02053C119.375 6.79552 118.663 7.14219 118.438 7.79484C118.213 8.4475 118.56 9.15899 119.213 9.38401L120.027 7.02053ZM123.003 10.759C123.648 11.0047 124.37 10.6808 124.616 10.0356C124.862 9.3904 124.538 8.66826 123.893 8.42263L123.003 10.759ZM129.585 10.7406C128.952 10.4659 128.216 10.7567 127.941 11.3901C127.667 12.0235 127.957 12.7596 128.591 13.0342L129.585 10.7406ZM132.265 14.6916C132.891 14.9845 133.635 14.7151 133.928 14.0899C134.22 13.4648 133.951 12.7206 133.326 12.4277L132.265 14.6916ZM138.852 15.1582C138.239 14.8398 137.485 15.0782 137.166 15.6908C136.848 16.3033 137.086 17.058 137.699 17.3764L138.852 15.1582ZM141.257 19.2857C141.861 19.62 142.621 19.4014 142.956 18.7974C143.29 18.1934 143.071 17.4327 142.467 17.0984L141.257 19.2857ZM147.776 20.1682C147.185 19.8117 146.417 20.002 146.06 20.5932C145.704 21.1843 145.894 21.9526 146.485 22.3091L147.776 20.1682ZM149.92 24.4362C150.503 24.8065 151.275 24.6344 151.645 24.0517C152.016 23.4691 151.844 22.6966 151.261 22.3263L149.92 24.4362ZM156.386 25.7066C155.816 25.317 155.039 25.4632 154.649 26.0332C154.259 26.6031 154.406 27.3809 154.976 27.7705L156.386 25.7066ZM1.91778 39.4493C2.3721 38.9587 2.82958 38.4733 3.29009 37.9933L1.48601 36.2626C1.01534 36.7532 0.547749 37.2493 0.0833761 37.7508L1.91778 39.4493ZM7.5559 33.7752C8.53318 32.8585 9.5214 31.9637 10.5194 31.0908L8.87351 29.2091C7.85385 30.1009 6.84411 31.0151 5.84548 31.9519L7.5559 33.7752ZM15.1378 27.2585C16.1915 26.4293 17.2537 25.623 18.323 24.8394L16.8453 22.8229C15.7531 23.6232 14.6681 24.4469 13.5917 25.2939L15.1378 27.2585ZM23.2525 21.4182C24.3747 20.6813 25.5024 19.9684 26.6343 19.2793L25.3342 17.1439C24.1782 17.8477 23.0264 18.5759 21.8803 19.3285L23.2525 21.4182ZM31.8377 16.2916C33.0196 15.6528 34.2036 15.0393 35.3882 14.451L34.2761 12.2119C33.0659 12.813 31.8563 13.4397 30.649 14.0923L31.8377 16.2916ZM40.8287 11.9241C42.0641 11.3894 43.2974 10.8819 44.5268 10.4014L43.6167 8.07297C42.3594 8.56437 41.0986 9.08321 39.8358 9.6297L40.8287 11.9241ZM50.169 8.37356C51.4502 7.9532 52.7239 7.56257 53.9879 7.20141L53.3011 4.7976C52.0058 5.1677 50.7012 5.56781 49.3896 5.99815L50.169 8.37356ZM59.791 5.73293C60.4453 5.589 61.0959 5.45331 61.7424 5.32582L61.2588 2.87305C60.5942 3.00409 59.9258 3.1435 59.2539 3.29131L59.791 5.73293ZM61.7424 5.32582C62.3861 5.19891 63.0451 5.07388 63.7193 4.95182L63.274 2.4918C62.5863 2.61631 61.9145 2.74377 61.2588 2.87305L61.7424 5.32582ZM69.686 4.02725C70.9748 3.86215 72.3063 3.7145 73.6797 3.58975L73.4535 1.1C72.0481 1.22766 70.6861 1.37871 69.3683 1.54752L69.686 4.02725ZM79.694 3.21525C81.0049 3.17126 82.3473 3.15093 83.7206 3.15798L83.7335 0.658017C82.3271 0.650798 80.9524 0.671618 79.6101 0.716654L79.694 3.21525ZM89.7396 3.36325C91.0503 3.44592 92.3853 3.55494 93.7442 3.69299L93.9969 1.2058C92.6059 1.06447 91.2391 0.95286 89.897 0.868206L89.7396 3.36325ZM99.7245 4.47231C101.027 4.67944 102.349 4.91405 103.691 5.17821L104.174 2.72534C102.802 2.45521 101.45 2.21523 100.117 2.00332L99.7245 4.47231ZM109.576 6.50269C110.854 6.82637 112.149 7.17739 113.458 7.55734L114.155 5.15633C112.817 4.76837 111.495 4.40984 110.189 4.07913L109.576 6.50269ZM119.213 9.38401C120.463 9.81523 121.727 10.2731 123.003 10.759L123.893 8.42263C122.592 7.92735 121.303 7.4604 120.027 7.02053L119.213 9.38401ZM128.591 13.0342C129.805 13.5608 131.03 14.113 132.265 14.6916L133.326 12.4277C132.069 11.8389 130.822 11.2768 129.585 10.7406L128.591 13.0342ZM137.699 17.3764C138.876 17.9883 140.062 18.6245 141.257 19.2857L142.467 17.0984C141.254 16.4267 140.048 15.7802 138.852 15.1582L137.699 17.3764ZM146.485 22.3091C147.623 22.9951 148.768 23.7039 149.92 24.4362L151.261 22.3263C150.092 21.5835 148.931 20.8644 147.776 20.1682L146.485 22.3091ZM154.976 27.7705C155.533 28.1514 156.092 28.5379 156.652 28.9299L158.085 26.8813C157.517 26.4841 156.951 26.0926 156.386 25.7066L154.976 27.7705Z" fill="#8C8C8C"/>
</svg>
