<svg width="12" height="31" viewBox="0 0 12 31" fill="none" xmlns="http://www.w3.org/2000/svg">
<path d="M5.46964 30.5303C5.76253 30.8232 6.23741 30.8232 6.5303 30.5303L11.3033 25.7574C11.5962 25.4645 11.5962 24.9896 11.3033 24.6967C11.0104 24.4038 10.5355 24.4038 10.2426 24.6967L5.99997 28.9393L1.75734 24.6967C1.46444 24.4038 0.989569 24.4038 0.696676 24.6967C0.403783 24.9896 0.403782 25.4645 0.696675 25.7574L5.46964 30.5303ZM5.25 1.40625C5.25 1.82046 5.58578 2.15625 6 2.15625C6.41421 2.15625 6.75 1.82046 6.75 1.40625L5.25 1.40625ZM6.74999 6.09375C6.74999 5.67954 6.41421 5.34375 5.99999 5.34375C5.58578 5.34375 5.24999 5.67954 5.24999 6.09375L6.74999 6.09375ZM5.24999 8.90625C5.24999 9.32046 5.58578 9.65625 5.99999 9.65625C6.4142 9.65625 6.74999 9.32046 6.74999 8.90625L5.24999 8.90625ZM6.74999 13.5938C6.74999 13.1795 6.4142 12.8437 5.99999 12.8438C5.58577 12.8438 5.24999 13.1795 5.24999 13.5937L6.74999 13.5938ZM5.24998 16.4063C5.24998 16.8205 5.58577 17.1563 5.99998 17.1563C6.4142 17.1562 6.74998 16.8205 6.74998 16.4062L5.24998 16.4063ZM6.74998 21.0937C6.74998 20.6795 6.41419 20.3437 5.99998 20.3438C5.58577 20.3438 5.24998 20.6795 5.24998 21.0938L6.74998 21.0937ZM5.24998 23.9063C5.24998 24.3205 5.58576 24.6563 5.99998 24.6563C6.41419 24.6562 6.74998 24.3205 6.74998 23.9062L5.24998 23.9063ZM6.74997 28.5937C6.74997 28.1795 6.41419 27.8437 5.99997 27.8438C5.58576 27.8438 5.24997 28.1795 5.24997 28.5938L6.74997 28.5937ZM5.25 -7.07708e-07L5.25 1.40625L6.75 1.40625L6.75 7.07708e-07L5.25 -7.07708e-07ZM5.24999 6.09375L5.24999 8.90625L6.74999 8.90625L6.74999 6.09375L5.24999 6.09375ZM5.24999 13.5937L5.24998 16.4063L6.74998 16.4062L6.74999 13.5938L5.24999 13.5937ZM5.24998 21.0938L5.24998 23.9063L6.74998 23.9062L6.74998 21.0937L5.24998 21.0938ZM5.24997 28.5938L5.24997 30L6.74997 30L6.74997 28.5937L5.24997 28.5938Z" fill="#8C8C8C"/>
</svg>
