<svg width="94" height="23" viewBox="0 0 94 23" fill="none" xmlns="http://www.w3.org/2000/svg">
<path d="M36.7036 2.06989L36.8487 2.80573L36.7036 2.06989ZM92.6287 16.6634C93.0366 16.5913 93.3087 16.2021 93.2366 15.7942L92.0611 9.1474C91.9889 8.73952 91.5998 8.46734 91.1919 8.53948C90.784 8.61162 90.5118 9.00075 90.584 9.40864L91.6289 15.3169L85.7206 16.3619C85.3127 16.434 85.0405 16.8232 85.1127 17.231C85.1848 17.6389 85.574 17.9111 85.9818 17.839L92.6287 16.6634ZM2.84185 21.8114C3.1286 21.5125 3.11874 21.0377 2.81983 20.751C2.52092 20.4642 2.04615 20.4741 1.7594 20.773L2.84185 21.8114ZM4.29741 18.2634C3.99532 18.5468 3.98016 19.0214 4.26355 19.3235C4.54694 19.6256 5.02157 19.6408 5.32367 19.3574L4.29741 18.2634ZM7.04781 17.7956C7.3596 17.5229 7.39128 17.0491 7.11858 16.7373C6.84588 16.4255 6.37207 16.3938 6.06029 16.6665L7.04781 17.7956ZM8.80714 14.3872C8.48163 14.6434 8.42541 15.1149 8.68157 15.4404C8.93773 15.7659 9.40927 15.8221 9.73477 15.566L8.80714 14.3872ZM11.5879 14.1586C11.922 13.9137 11.9944 13.4444 11.7496 13.1103C11.5048 12.7762 11.0354 12.7038 10.7013 12.9486L11.5879 14.1586ZM13.6326 10.9143C13.2863 11.1416 13.19 11.6066 13.4173 11.9529C13.6447 12.2991 14.1097 12.3955 14.4559 12.1681L13.6326 10.9143ZM16.4234 10.9237C16.7772 10.7083 16.8894 10.2468 16.674 9.89302C16.4586 9.53923 15.9972 9.42703 15.6434 9.64244L16.4234 10.9237ZM18.7375 7.86583C18.3731 8.06278 18.2374 8.51784 18.4343 8.88223C18.6313 9.24663 19.0863 9.38237 19.4507 9.18543L18.7375 7.86583ZM21.5164 8.11455C21.8874 7.9303 22.0388 7.48019 21.8545 7.10922C21.6702 6.73824 21.2201 6.58688 20.8492 6.77113L21.5164 8.11455ZM24.086 5.2678C23.7058 5.43231 23.531 5.87384 23.6955 6.25399C23.86 6.63413 24.3016 6.80893 24.6817 6.64441L24.086 5.2678ZM26.8332 5.75856C27.219 5.60777 27.4095 5.17279 27.2587 4.787C27.1079 4.40121 26.6729 4.2107 26.2871 4.36149L26.8332 5.75856ZM29.6481 3.15354C29.2545 3.28267 29.0402 3.7064 29.1693 4.09998C29.2984 4.49355 29.7222 4.70792 30.1157 4.57879L29.6481 3.15354ZM32.3375 3.89686C32.7358 3.78307 32.9664 3.36795 32.8526 2.96968C32.7388 2.5714 32.3237 2.34078 31.9254 2.45457L32.3375 3.89686ZM35.3912 1.57759C34.9867 1.66658 34.7309 2.06667 34.8199 2.47121C34.9089 2.87575 35.3089 3.13155 35.7135 3.04256L35.3912 1.57759ZM37.9989 2.58813C38.4065 2.51434 38.6771 2.12411 38.6033 1.71652C38.5295 1.30893 38.1393 1.03833 37.7317 1.11212L37.9989 2.58813ZM41.2797 0.562372C40.8688 0.615005 40.5784 0.990737 40.6311 1.40159C40.6837 1.81245 41.0594 2.10285 41.4703 2.05021L41.2797 0.562372ZM43.7938 1.79568C44.2063 1.75821 44.5103 1.39342 44.4729 0.980909C44.4354 0.568393 44.0706 0.264361 43.6581 0.301832L43.7938 1.79568ZM47.2424 0.0786469C46.8285 0.0925374 46.5041 0.439395 46.518 0.853375C46.5319 1.26736 46.8788 1.59169 47.2927 1.5778L47.2424 0.0786469ZM49.6354 1.54449C50.0496 1.54661 50.3871 1.21256 50.3892 0.798348C50.3913 0.38414 50.0573 0.0466342 49.6431 0.0445084L49.6354 1.54449ZM53.2315 0.166881C52.8181 0.140806 52.4618 0.454788 52.4358 0.86818C52.4097 1.28157 52.7237 1.63783 53.1371 1.66391L53.2315 0.166881ZM55.4668 1.85574C55.8789 1.89761 56.2469 1.59749 56.2888 1.18539C56.3307 0.773303 56.0305 0.405295 55.6184 0.363427L55.4668 1.85574ZM59.1816 0.827745C58.7725 0.762702 58.3882 1.0416 58.3231 1.45067C58.2581 1.85975 58.537 2.24409 58.9461 2.30914L59.1816 0.827745ZM61.2535 2.71982C61.6599 2.79987 62.0542 2.5353 62.1343 2.12889C62.2143 1.72249 61.9497 1.32814 61.5433 1.2481L61.2535 2.71982ZM65.0454 2.03626C64.6438 1.93461 64.2359 2.17773 64.1343 2.57928C64.0326 2.98083 64.2757 3.38875 64.6773 3.49039L65.0454 2.03626ZM66.9363 4.10399C67.3341 4.21939 67.7501 3.99046 67.8655 3.59264C67.9809 3.19483 67.752 2.77879 67.3542 2.66338L66.9363 4.10399ZM70.773 3.74867C70.3815 3.61366 69.9546 3.82166 69.8195 4.21326C69.6845 4.60485 69.8925 5.03174 70.2841 5.16676L70.773 3.74867ZM72.4895 5.96676C72.8766 6.11414 73.3099 5.9198 73.4573 5.53269C73.6047 5.14559 73.4104 4.7123 73.0232 4.56492L72.4895 5.96676ZM76.3373 5.91434C75.9573 5.74954 75.5156 5.92402 75.3508 6.30404C75.186 6.68406 75.3605 7.12572 75.7405 7.29052L76.3373 5.91434ZM77.8786 8.25486C78.2537 8.43057 78.7002 8.26892 78.8759 7.89382C79.0516 7.51872 78.89 7.07221 78.5149 6.8965L77.8786 8.25486ZM81.7318 8.48605C81.3643 8.295 80.9115 8.43806 80.7204 8.80558C80.5294 9.1731 80.6724 9.62591 81.0399 9.81696L81.7318 8.48605ZM83.11 10.9279C83.4724 11.1285 83.9288 10.9973 84.1294 10.6349C84.33 10.2725 84.1988 9.81608 83.8364 9.61549L83.11 10.9279ZM86.9268 11.4025C86.5721 11.1886 86.1111 11.3028 85.8972 11.6575C85.6834 12.0122 85.7975 12.4731 86.1522 12.687L86.9268 11.4025ZM88.1509 13.9247C88.5005 14.1469 88.964 14.0436 89.1861 13.694C89.4083 13.3444 89.305 12.8809 88.9555 12.6588L88.1509 13.9247ZM91.939 14.6265C91.5971 14.3927 91.1304 14.4805 90.8966 14.8224C90.6629 15.1644 90.7506 15.6311 91.0926 15.8648L91.939 14.6265ZM2.04344 22.6585C2.30776 22.3731 2.57392 22.0907 2.84185 21.8114L1.7594 20.773C1.48538 21.0586 1.21315 21.3474 0.942803 21.6394L2.04344 22.6585ZM5.32367 19.3574C5.89224 18.824 6.46718 18.3034 7.04781 17.7956L6.06029 16.6665C5.46666 17.1857 4.8788 17.718 4.29741 18.2634L5.32367 19.3574ZM9.73477 15.566C10.3478 15.0835 10.9658 14.6144 11.5879 14.1586L10.7013 12.9486C10.0654 13.4146 9.4338 13.8941 8.80714 14.3872L9.73477 15.566ZM14.4559 12.1681C15.1088 11.7394 15.7649 11.3246 16.4234 10.9237L15.6434 9.64244C14.9704 10.0522 14.2998 10.4761 13.6326 10.9143L14.4559 12.1681ZM19.4507 9.18543C20.1384 8.81377 20.8272 8.45684 21.5164 8.11455L20.8492 6.77113C20.1446 7.12107 19.4404 7.48594 18.7375 7.86583L19.4507 9.18543ZM24.6817 6.64441C25.4004 6.33336 26.118 6.03812 26.8332 5.75856L26.2871 4.36149C25.5552 4.64758 24.8211 4.94964 24.086 5.2678L24.6817 6.64441ZM30.1157 4.57879C30.8611 4.33423 31.6021 4.10697 32.3375 3.89686L31.9254 2.45457C31.1712 2.67005 30.4117 2.90299 29.6481 3.15354L30.1157 4.57879ZM35.7135 3.04256C36.0941 2.95883 36.4726 2.87989 36.8487 2.80573L36.5585 1.33406C36.1716 1.41036 35.7824 1.49153 35.3912 1.57759L35.7135 3.04256ZM36.8487 2.80573C37.2232 2.73189 37.6066 2.65914 37.9989 2.58813L37.7317 1.11212C37.3313 1.1846 36.9402 1.2588 36.5585 1.33406L36.8487 2.80573ZM41.4703 2.05021C42.2201 1.95416 42.9948 1.86826 43.7938 1.79568L43.6581 0.301832C42.8399 0.376156 42.0469 0.464092 41.2797 0.562372L41.4703 2.05021ZM47.2927 1.5778C48.0554 1.55221 48.8364 1.54039 49.6354 1.54449L49.6431 0.0445084C48.8243 0.0403054 48.0239 0.0524268 47.2424 0.0786469L47.2927 1.5778ZM53.1371 1.66391C53.8996 1.71201 54.6763 1.77543 55.4668 1.85574L55.6184 0.363427C54.8086 0.281148 54.0129 0.216167 53.2315 0.166881L53.1371 1.66391ZM58.9461 2.30914C59.704 2.42964 60.4732 2.56613 61.2535 2.71982L61.5433 1.2481C60.7449 1.09083 59.9576 0.951119 59.1816 0.827745L58.9461 2.30914ZM64.6773 3.49039C65.4212 3.67871 66.1743 3.88293 66.9363 4.10399L67.3542 2.66338C66.5756 2.43752 65.806 2.22879 65.0454 2.03626L64.6773 3.49039ZM70.2841 5.16676C71.0118 5.41764 71.747 5.68407 72.4895 5.96676L73.0232 4.56492C72.2659 4.27659 71.5158 4.00475 70.773 3.74867L70.2841 5.16676ZM75.7405 7.29052C76.4471 7.59691 77.1598 7.91817 77.8786 8.25486L78.5149 6.8965C77.7831 6.55371 77.0572 6.22651 76.3373 5.91434L75.7405 7.29052ZM81.0399 9.81696C81.7248 10.173 82.4149 10.5431 83.11 10.9279L83.8364 9.61549C83.1299 9.22448 82.4284 8.84815 81.7318 8.48605L81.0399 9.81696ZM86.1522 12.687C86.8142 13.0862 87.4804 13.4986 88.1509 13.9247L88.9555 12.6588C88.2751 12.2264 87.5989 11.8078 86.9268 11.4025L86.1522 12.687ZM91.0926 15.8648C91.4169 16.0865 91.7421 16.3113 92.0682 16.5395L92.9279 15.3103C92.5974 15.0791 92.2678 14.8512 91.939 14.6265L91.0926 15.8648Z" fill="#8C8C8C"/>
</svg>
